<svg xmlns="http://www.w3.org/2000/svg" height="425" width="250.02"><defs><clipPath id="a"><path d="M-420.39-343.392l7.777-7.815 7.778 7.815-7.778 7.815z"/></clipPath></defs><g font-size="23.686" font-family="VomZom" fill="#333" letter-spacing="0" word-spacing="0"><path d="M8.248 6.614c4.01-.092 7.776 3.17 8.2 7.17.506 3.516-1.562 7.167-4.802 8.593-1.964.975-4.18.675-6.292.725H3.29v6.61H.024c.006-5.1-.013-10.2.01-15.3.107-3.8 3.218-7.202 6.974-7.708.41-.06.826-.09 1.24-.09zm0 13.22c2.357.058 4.568-1.78 4.92-4.116.47-2.35-1.03-4.876-3.322-5.58-2.214-.787-4.878.247-5.96 2.338-.838 1.43-.54 3.117-.596 4.69v2.668h4.958zM18.024 6.534h3.23v16.488h-3.23V6.534zM30.963 16.904h.117l4.593 6.124h4.004l-6.242-8.48 5.535-8.006h-4.004l-3.886 5.652h-.117l-3.886-5.652h-4.004l5.534 8.007-6.24 8.478h4.003z"/><path d="M46.997 6.534c3.272-.064 6.41 2.08 7.622 5.106.63 1.406.622 2.963.602 4.472v6.91c-2.916-.01-5.833.02-8.75-.016-3.35-.163-6.417-2.607-7.376-5.815-.88-2.788-.15-6.026 1.922-8.11 1.547-1.6 3.745-2.567 5.978-2.546zm4.958 13.22c-.014-1.833.03-3.668-.025-5.5-.193-2.456-2.468-4.514-4.933-4.45-2.344-.057-4.553 1.76-4.92 4.08-.43 2.228.85 4.654 2.974 5.485 1.31.57 2.755.334 4.14.384h2.765zM65.06 6.614c3.87-.095 7.487 2.95 8.103 6.76.7 3.614-1.34 7.516-4.705 9.003-3.287 1.552-7.514.552-9.774-2.29-1.4-1.65-2.005-3.846-1.886-5.985V.005h3.268v6.61h4.995zm0 13.22c2.482.066 4.75-2.018 4.933-4.487.31-2.454-1.508-4.922-3.937-5.368-1.343-.185-2.707-.06-4.06-.098h-1.93c.02 1.863-.045 3.73.038 5.59.26 2.46 2.484 4.41 4.957 4.36zM82.768 6.534c3.272-.064 6.41 2.08 7.622 5.106.632 1.406.623 2.963.603 4.472v6.91c-2.916-.01-5.833.02-8.75-.016-3.35-.163-6.417-2.607-7.376-5.815-.88-2.788-.15-6.026 1.922-8.11 1.546-1.6 3.744-2.567 5.977-2.546zm4.957 13.22c-.014-1.833.03-3.668-.024-5.5-.192-2.456-2.467-4.514-4.932-4.45-2.344-.057-4.553 1.76-4.92 4.08-.43 2.228.85 4.654 2.974 5.485 1.308.57 2.754.334 4.137.384h2.765zM108.98 6.574c-.006 5.088.014 10.176-.01 15.263-.118 4.004-3.56 7.603-7.576 7.812-.763.04-1.528.015-2.292.022v-3.268c1.395-.007 2.886.135 4.12-.655 1.544-.866 2.524-2.612 2.49-4.377-2.897 2.336-7.387 2.215-10.204-.196-2.053-1.657-3.174-4.322-3.016-6.945V6.575h3.268c.015 2.91-.03 5.823.024 8.732.177 2.35 2.235 4.356 4.59 4.474 2.428.248 4.818-1.58 5.24-3.98.184-1.344.06-2.71.097-4.065v-5.16h3.27z"/></g><path d="M166.65 15.094l-4.43-4.45c1.853-2.466 1.626-6.213-.486-8.455-2.03-2.276-5.65-2.88-8.283-1.33-2.53 1.412-3.943 4.56-3.256 7.397.646 2.963 3.47 5.294 6.51 5.25 1.4.007 2.8-.45 3.934-1.273 1.504 1.505 2.997 3.02 4.508 4.52.913.81 2.497-.553 1.618-1.532l-.113-.128zm-9.89-3.178c-2.61.072-5.013-2.18-5.137-4.8-.205-2.46 1.575-4.91 3.99-5.408 2.33-.555 4.947.734 5.87 2.968 1.007 2.26.148 5.197-2 6.462-.81.507-1.765.783-2.722.778zM23.517 121.333l-6.265-6.287c2.62-3.487 2.298-8.782-.688-11.95-2.87-3.215-7.99-4.066-11.714-1.877-3.58 1.993-5.577 6.444-4.605 10.45.913 4.19 4.905 7.482 9.204 7.42 1.98.01 3.958-.634 5.564-1.8 2.127 2.128 4.24 4.27 6.376 6.387 1.29 1.146 3.53-.78 2.288-2.163l-.16-.18zm-13.986-4.49c-3.693.1-7.09-3.083-7.265-6.786-.29-3.473 2.227-6.935 5.645-7.64 3.293-.785 6.994 1.037 8.298 4.193 1.425 3.195.21 7.346-2.825 9.133-1.15.716-2.5 1.106-3.85 1.1z" fill="#FFF"/><g fill="#636363"><path d="M51.986 103.93c-1.083 0-1.965-.88-1.965-1.965 0-1.083.883-1.965 1.966-1.965s1.966.882 1.966 1.965c0 1.084-.882 1.965-1.966 1.965zM58.91 103.93c-1.083 0-1.965-.88-1.965-1.965 0-1.084.882-1.965 1.966-1.965s1.966.88 1.966 1.965c0 1.084-.882 1.965-1.965 1.965zM66.056 103.93c-1.084 0-1.966-.88-1.966-1.965 0-1.084.882-1.965 1.966-1.965s1.965.88 1.965 1.965c0 1.084-.88 1.965-1.964 1.965z"/></g><path d="M216.65 15.094l-4.43-4.45c1.853-2.466 1.626-6.213-.486-8.455-2.03-2.276-5.65-2.88-8.283-1.33-2.53 1.412-3.943 4.56-3.256 7.397.646 2.963 3.47 5.294 6.51 5.25 1.4.007 2.8-.45 3.934-1.273 1.504 1.505 2.997 3.02 4.508 4.52.913.81 2.497-.553 1.618-1.532l-.113-.128zm-9.89-3.178c-2.61.072-5.013-2.18-5.137-4.8-.205-2.46 1.575-4.91 3.99-5.408 2.33-.555 4.947.734 5.87 2.968 1.007 2.26.148 5.197-2 6.462-.81.507-1.765.783-2.722.778z" fill="#636363"/><path d="M68.478 251.778c-.68.3-1.41.505-2.175.596.782-.47 1.383-1.21 1.665-2.095-.732.433-1.542.748-2.404.918-.69-.736-1.675-1.196-2.764-1.196-2.445 0-4.242 2.28-3.69 4.65-3.146-.158-5.937-1.666-7.804-3.957-.992 1.702-.515 3.93 1.172 5.056-.62-.018-1.205-.19-1.716-.473-.04 1.755 1.217 3.395 3.038 3.76-.533.146-1.117.18-1.71.066.48 1.505 1.88 2.6 3.537 2.63-1.592 1.247-3.597 1.805-5.606 1.568 1.677 1.075 3.667 1.702 5.806 1.702 7.03 0 11.003-5.938 10.763-11.264.738-.533 1.38-1.2 1.888-1.96zM2.02 254.908H.45v2.564h1.57v7.532h3.022v-7.564H7.15l.223-2.532h-2.33v-1.443c0-.597.12-.833.696-.833h1.633v-2.628h-2.09c-2.248 0-3.262.99-3.262 2.884v2.02z" fill="#555"/><path d="M66.025 50.004h-5v2h-6v-2h-5c0 5 4 10.85 7 11.75v1.25c-1 0-2 .5-2 1h6c0-.5-1-1-2-1v-1.25c3-.9 7-6.75 7-11.75zm-4.005 2.538l.005-.538v-1h2.945c-.087.807-.277 1.66-.567 2.546-.384 1.172-.94 2.373-1.607 3.472-.643 1.057-1.372 1.995-2.11 2.714-.07.07-.14.135-.21.2 1.325-2.66 1.517-5.985 1.544-7.394zm-6.657 7.194c-.737-.72-1.466-1.657-2.11-2.714-.667-1.1-1.222-2.3-1.606-3.472-.29-.886-.48-1.74-.567-2.546h2.945v1l.005.538c.028 1.41.22 4.736 1.545 7.394-.07-.065-.14-.13-.21-.2zM110.52 202.358c1.047 0 1.985-.57 2.626-1v8.145c-.64.43-1.58 1-2.625 1s-1.983-.31-2.624-.74c-.64-.432-1.58-.742-2.625-.742s-1.982.533-2.624.964v-8.144c.64-.43 1.58-.963 2.625-.963s1.985.31 2.626.74c.64.43 1.58.74 2.625.74zm-9.624-2.356c.483 0 .875.392.875.875v13.125h-1.75v-13.125c0-.483.393-.875.876-.875z" fill="#FFF"/><g fill="#636363"><path d="M100.02 100h22v2h-22zM100.02 107h22v2h-22zM100.02 114h22v2h-22z"/></g><g fill="#FFF"><path d="M.02 64h15v2h-15zM5.02 50h5v8h-5z"/><path clip-path="url(#a)" transform="translate(420.132 399)" d="M-420.11-342h15v10.048h-15z"/></g><g fill="#FFF"><path d="M105.308 62.668c-.486.074-.97.17-1.456.227-.664.04-1.29-.497-1.36-1.157l-.11-.722c-.757.76-1.522 1.514-2.274 2.28-.212.256-.007.675.32.684l1.36.254c.096.493.18.987.28 1.478.093.32.554.388.747.123l2.877-2.877c-.122-.102-.21-.278-.384-.29z"/><path d="M109.387 62.147c.52.058 1.036.232 1.558.194.5-.095.63-.622.66-1.056.115-.502.02-1.183.58-1.436.445-.252.953-.408 1.342-.74.35-.37.143-.874-.085-1.244-.195-.466-.66-.94-.392-1.47.216-.475.542-.912.666-1.42.064-.505-.4-.79-.8-.955-.443-.266-1.12-.385-1.19-.997-.1-.5-.092-1.03-.287-1.503-.247-.446-.788-.406-1.21-.303-.504.04-1.1.34-1.52-.082-.382-.35-.696-.79-1.135-1.068-.48-.233-.876.19-1.17.514-.372.338-.71.92-1.298.763-.495-.055-.987-.223-1.485-.182-.5.097-.628.624-.66 1.058-.115.502-.018 1.184-.58 1.437-.444.25-.953.407-1.34.74-.35.37-.144.873.084 1.242.195.467.662.94.392 1.47-.216.475-.54.912-.666 1.42-.063.506.4.792.8.956.444.265 1.122.384 1.19.997.1.5.093 1.03.288 1.503.245.446.786.405 1.21.302.503-.04 1.098-.34 1.52.082.38.35.695.788 1.133 1.068.51.244.906-.236 1.222-.566.343-.307.634-.828 1.172-.723zm-2.103-.706c-2.212.032-4.28-1.67-4.688-3.842-.467-2.092.675-4.388 2.614-5.293 1.88-.962 4.345-.428 5.692 1.19 1.462 1.63 1.557 4.274.216 6.006-.884 1.2-2.342 1.945-3.834 1.942z"/><path d="M107.284 52.517c-2.255.014-4.085 1.85-4.085 4.11 0 2.255 1.83 4.093 4.084 4.107 2.255-.014 4.085-1.85 4.085-4.108 0-2.258-1.83-4.095-4.086-4.11zM114.422 63.252l-2.236-2.236c-.06.335-.08.68-.178 1.007-.207.608-.894.988-1.52.845l-1.228-.2c-.174.014-.262.187-.384.29l2.92 2.92c.236.26.71.08.726-.267.086-.458.17-.917.257-1.375.49-.095.986-.18 1.477-.28.294-.09.39-.49.166-.703z"/></g><g fill="#FFF"><path d="M61.663 357.677h-.542c-.078 0-.143.026-.193.077-.05.05-.076.117-.076.197v2.743c0 .377-.132.7-.397.968s-.584.404-.956.404h-7.04c-.372 0-.69-.134-.956-.403s-.397-.59-.397-.967v-7.13c0-.376.133-.7.398-.967s.585-.403.957-.403h5.956c.08 0 .144-.026.195-.077.05-.052.076-.117.076-.197v-.55c0-.08-.026-.145-.076-.197-.05-.05-.116-.077-.195-.077h-5.956c-.67 0-1.245.242-1.722.724-.476.483-.715 1.064-.715 1.744v7.13c0 .678.24 1.26.715 1.742.477.483 1.05.724 1.722.724h7.04c.67 0 1.244-.24 1.72-.724.477-.482.716-1.064.716-1.743v-2.742c0-.08-.026-.145-.077-.197-.05-.05-.115-.077-.194-.077z"/><path d="M65.02 350.163c-.106-.11-.233-.163-.38-.163h-4.33c-.148 0-.275.054-.382.163-.107.108-.16.237-.16.385s.053.277.16.386l1.49 1.508-5.517 5.587c-.055.056-.083.12-.083.196 0 .074.028.14.084.197l.966.976c.056.057.12.085.194.085s.14-.028.195-.086l5.516-5.587 1.49 1.508c.107.11.234.164.38.164s.274-.055.382-.163c.107-.108.16-.236.16-.385v-4.387c0-.148-.053-.277-.16-.385z"/></g><path d="M207.02 250.638c-3.515 0-6.365 2.438-6.365 5.447 0 1.57.78 2.98 2.02 3.973-.233.635-.628 1.464-1.3 2.312 1.273 0 2.91-.176 4.172-.99.474.097.966.152 1.474.152 3.517 0 6.367-2.44 6.367-5.447s-2.85-5.447-6.366-5.447z" stroke="#FFF" stroke-width="1.268" fill="none"/><g fill="#FFF"><path d="M163.146 352.572v8.57h-10.5v-8.57h10.5m.875-.857h-12.25V362h12.25v-10.285zm-14-1.715v10.286h.876v-9.428h11.375V350z"/><path d="M152.334 352.232h11.06v9.394h-11.06z"/></g><path d="M159.85 180.998c0 1.087-.78 1.968-1.746 1.968s-1.748-.88-1.748-1.968.782-1.968 1.748-1.968c.965 0 1.747.88 1.747 1.968zm6.17-.32s-2.834 5.32-7.99 5.32c-4.786 0-8.01-5.32-8.01-5.32s2.966-4.68 8.01-4.68c5.13 0 7.99 4.68 7.99 4.68zm-4.814.32c0-1.932-1.39-3.498-3.107-3.498s-3.108 1.566-3.108 3.5 1.39 3.497 3.107 3.497 3.106-1.566 3.106-3.498z" fill="#FFF"/><g fill="#666"><path d="M204.04 149.997h4.02v6.555h-4.02z"/><path clip-path="url(#a)" transform="matrix(.8037 0 0 .77824 537.666 422.157)" d="M-420.11-342h15v10.048h-15z"/></g><path d="M212.627 129.61l-3.168 3.052.72 4.338-3.885-2.067-3.906 2.025.766-4.33-3.135-3.086 4.36-.61 1.968-3.932 1.927 3.954zM205.94 99.998c-3.27 0-5.922 2.286-5.922 5.107 0 1.47.726 2.793 1.88 3.725-.217.595-.585 1.373-1.21 2.168 1.185 0 2.708-.165 3.88-.93.442.092.9.144 1.373.144 3.272 0 5.924-2.286 5.924-5.107 0-2.82-2.652-5.107-5.923-5.107z" fill="#666"/><g fill="#FFF"><path d="M200.02 353.208v5.837c0 .527.43.955.956.955h10.434c.527 0 .955-.428.955-.955v-5.837H200.02zM212.365 352.07c0-.53-.427-.956-.955-.956h-5.137c-.528 0-1.062-.25-1.194-.557-.133-.308-.667-.557-1.194-.557h-2.433c-.527 0-1.06.25-1.193.557-.132.308-.24.984-.24 1.512v.183h12.345v-.184z"/></g><path d="M160.687 155.944l-9.418-5.746c-.687-.443-1.25-.117-1.25.725v11.154c0 .842.563 1.168 1.25.725l9.417-5.746s.334-.232.334-.556-.333-.556-.333-.556zM158.61 252.288l3.125 3.124-7.497 7.497-3.125-3.125 7.498-7.497zm3.718 2.5l-3.092-3.094 1.325-1.325c.49-.49 1.28-.49 1.768 0l1.326 1.324c.488.488.488 1.28 0 1.767l-1.326 1.327zm-11.996 9.215l-.312-.313.82-2.616 2.11 2.11-2.618.82zM106.38 149.998c-4.23 0-6.362 2.935-6.362 5.382 0 1.482.58 2.8 1.823 3.292.205.08.388.003.447-.216.04-.15.138-.533.182-.69.058-.218.035-.293-.13-.482-.358-.41-.587-.94-.587-1.69 0-2.177 1.684-4.126 4.384-4.126 2.39 0 3.704 1.414 3.704 3.302 0 2.484-1.135 4.58-2.82 4.58-.933 0-1.63-.745-1.407-1.66.268-1.09.786-2.268.786-3.056 0-.705-.392-1.294-1.202-1.294-.952 0-1.717.954-1.717 2.23 0 .814.285 1.364.285 1.364l-1.145 4.695c-.34 1.392-.05 3.1-.027 3.273.015.102.15.127.212.05.088-.112 1.222-1.467 1.607-2.82.11-.383.627-2.368.627-2.368.308.57 1.212 1.073 2.174 1.073 2.862 0 4.804-2.525 4.804-5.904 0-2.556-2.237-4.936-5.637-4.936z" fill="#FFF"/><path d="M208.62 180.498c0 .978-.683 1.77-1.528 1.77-.844 0-1.53-.792-1.53-1.77s.686-1.77 1.53-1.77c.845 0 1.53.792 1.53 1.77zm5.4-.29s-2.48 4.79-6.99 4.79c-4.188 0-7.01-4.79-7.01-4.79s2.595-4.21 7.01-4.21c4.488 0 6.99 4.21 6.99 4.21zm-4.212.288c0-1.74-1.218-3.148-2.72-3.148-1.5 0-2.717 1.41-2.717 3.148s1.218 3.15 2.72 3.15c1.5 0 2.718-1.41 2.718-3.15z" fill="#666"/><path d="M68.478 301.778c-.68.3-1.41.505-2.175.596.782-.47 1.383-1.21 1.665-2.095-.732.433-1.542.748-2.404.918-.69-.736-1.675-1.196-2.764-1.196-2.445 0-4.242 2.28-3.69 4.65-3.146-.158-5.937-1.666-7.804-3.957-.992 1.702-.515 3.93 1.172 5.056-.62-.018-1.205-.19-1.716-.473-.04 1.755 1.217 3.395 3.038 3.76-.533.146-1.117.18-1.71.066.48 1.505 1.88 2.6 3.537 2.63-1.592 1.247-3.597 1.805-5.606 1.568 1.677 1.075 3.667 1.702 5.806 1.702 7.03 0 11.003-5.938 10.763-11.264.738-.533 1.38-1.2 1.888-1.96zM2.02 304.908H.45v2.564h1.57v7.532h3.022v-7.564H7.15l.223-2.532h-2.33v-1.443c0-.597.12-.833.696-.833h1.633v-2.628h-2.09c-2.248 0-3.262.99-3.262 2.884v2.02z" fill="#FFF"/><path d="M161.45 109.143c0 2.522-2.05 4.57-4.572 4.57s-4.57-2.048-4.57-4.57 2.048-4.572 4.57-4.572h2.286l.013 2.3 3.436-3.44-3.436-3.43v2.286h-2.3c-3.784 0-6.856 3.07-6.856 6.857S153.094 116 156.88 116s6.857-3.07 6.857-6.857h-2.285z" fill="#666"/><path d="M156.77 51.798l2.456 2.454-5.89 5.89-2.456-2.453 5.89-5.892zm2.922 1.963l-2.43-2.43 1.04-1.04c.385-.384 1.007-.384 1.39 0l1.04 1.04c.385.385.385 1.006 0 1.39l-1.04 1.04zm-9.425 7.242l-.246-.245.645-2.056 1.657 1.658-2.056.644z" fill="gray"/><g fill="#FFF"><path d="M214.097 56.47c-.532-.538-1.24-.866-1.986-.934.646-.58 1.056-1.42 1.056-2.358 0-1.755-1.424-3.178-3.178-3.178-1.676 0-3.048 1.297-3.167 2.942 1.492.645 2.54 2.13 2.54 3.857 0 .63-.143 1.245-.41 1.804.383.2.738.46 1.048.772.792.795 1.243 1.897 1.232 3.02v.043l-.03.53h3.79l.03-4.197c.008-.86-.33-1.683-.934-2.29z"/><path d="M207.27 59.168c.646-.58 1.056-1.42 1.056-2.36 0-1.753-1.423-3.176-3.178-3.176s-3.177 1.423-3.177 3.177c0 .934.407 1.774 1.052 2.358-1.652.128-2.956 1.495-2.97 3.18l-.03.632h10.136l.03-.584c.008-.856-.33-1.682-.934-2.29-.536-.54-1.24-.867-1.986-.935z"/></g><path d="M14.076 358c0-.375-.04-.74-.106-1.095l2.05-1.173-2.017-3.465-2.05 1.174c-.56-.47-1.207-.843-1.914-1.09V350H6.002v2.35c-.707.247-1.354.62-1.913 1.09l-2.05-1.172-2.02 3.465 2.052 1.173c-.066.355-.105.72-.105 1.094 0 .374.04.738.105 1.094l-2.05 1.174 2.017 3.465 2.05-1.174c.56.473 1.206.844 1.913 1.092V366h4.036v-2.35c.706-.247 1.353-.618 1.91-1.09l2.053 1.173 2.018-3.465-2.05-1.173c.066-.356.106-.72.106-1.095zm-6.055 3c-1.67 0-3.026-1.343-3.026-3s1.355-3 3.027-3c1.674 0 3.03 1.343 3.03 3s-1.356 3-3.03 3z" fill="#636363"/><path d="M107.522 256.428v2.57h4.26c-.172 1.107-1.288 3.24-4.256 3.24-2.56 0-4.65-2.123-4.65-4.74s2.086-4.736 4.646-4.736c1.46 0 2.434.62 2.99 1.158l2.038-1.96c-1.307-1.223-3.002-1.96-5.025-1.96-4.15 0-7.504 3.35-7.504 7.5s3.355 7.5 7.502 7.5c4.332 0 7.203-3.043 7.203-7.33 0-.492-.053-.87-.118-1.242zm14.5 0h-2.145v-2.144h-2.144v2.144h-2.143v2.143h2.144v2.145h2.144v-2.144h2.143" stroke-linejoin="round" fill-rule="evenodd" stroke-miterlimit="1.414" fill="#555"/><path d="M107.522 306.428v2.57h4.26c-.172 1.107-1.288 3.24-4.256 3.24-2.56 0-4.65-2.123-4.65-4.74s2.086-4.736 4.646-4.736c1.46 0 2.434.62 2.99 1.158l2.038-1.96c-1.307-1.223-3.002-1.96-5.025-1.96-4.15 0-7.504 3.35-7.504 7.5s3.355 7.5 7.502 7.5c4.332 0 7.203-3.043 7.203-7.33 0-.492-.053-.87-.118-1.242zm14.5 0h-2.145v-2.144h-2.144v2.144h-2.143v2.143h2.144v2.145h2.144v-2.144h2.143" stroke-linejoin="round" fill-rule="evenodd" stroke-miterlimit="1.414" fill="#FFF"/><g fill="#636363"><path d="M57.52 159.055c2.773 0 3.77-2.52 4.032-4.588.322-2.55-1.007-4.467-4.03-4.467-3.024 0-4.353 1.918-4.032 4.467.262 2.07 1.26 4.59 4.03 4.588z"/><path d="M65.02 165.053c-.03-.803-.134-1.61-.288-2.4-.187-.957-.426-2.36-1.347-2.985-.532-.36-1.222-.48-1.832-.696-.297-.106-.563-.21-.812-.33-.842.837-1.94 1.276-3.22 1.276-1.278 0-2.376-.44-3.22-1.277-.248.12-.514.226-.81.332-.61.217-1.3.335-1.833.696-.92.624-1.16 2.028-1.347 2.985-.154.79-.258 1.597-.288 2.4-.023.622.315.71.888.897.718.235 1.46.41 2.205.552 1.44.276 2.927.49 4.406.498 1.48-.01 2.965-.222 4.406-.498.746-.143 1.487-.317 2.205-.552.575-.188.913-.275.89-.897z"/></g><g fill="#FFF"><path d="M10.882 400h-6.72c-2.284 0-4.14 1.857-4.14 4.14v6.72c0 2.283 1.856 4.14 4.14 4.14h6.72c2.282 0 4.14-1.857 4.14-4.14v-6.72c-.002-2.282-1.86-4.14-4.14-4.14zm2.81 10.86c0 1.55-1.26 2.81-2.81 2.81h-6.72c-1.55 0-2.81-1.26-2.81-2.81v-6.72c0-1.55 1.26-2.81 2.81-2.81h6.72c1.548 0 2.808 1.26 2.808 2.81v6.72z"/><path d="M7.52 403.635c-2.13 0-3.864 1.734-3.864 3.865 0 2.13 1.734 3.865 3.865 3.865s3.866-1.734 3.866-3.865c0-2.13-1.734-3.865-3.865-3.865zm0 6.4c-1.396 0-2.533-1.138-2.533-2.535 0-1.397 1.137-2.534 2.534-2.534s2.535 1.137 2.535 2.534c0 1.397-1.137 2.534-2.534 2.534zM11.548 402.507c-.256 0-.508.103-.69.285-.18.18-.286.433-.286.69 0 .257.105.51.287.69.18.182.432.287.688.287.258 0 .51-.106.69-.287.182-.182.286-.434.286-.69 0-.258-.104-.51-.285-.69-.182-.183-.434-.286-.692-.286z"/></g><path d="M22.91 212.704l-2.89.045.03-6.394s2.46.185 3.06-.075c.502-.13 3.833-1.93 4.84-2.964.85-.762 1.14-1.543 1.468-2.554.262-1.02 1.218-.8 1.637-.56.547.317.614 1.025.557 1.604-.073.44-.275 1.125-.604 1.744-.253.476-.674.885-.775 1.053-.128.206-.643.605-.442.67 1.096.246 1.602.314 3.16.728.588.325.732.416.898 1.034.122.635-.222 1.375-.752 1.85-.1.056-.554.625-.554.625s-1.172 3.304-1.785 4.005c-.39.348-.657.43-1.107.485-.282 0-1.49-.056-2.858-.224-1.648-.257-2.726-1.038-3.882-1.072zM84.727 205.378l-3.695 3.56.84 5.062-4.53-2.412-4.56 2.363.896-5.05-3.657-3.6 5.086-.712L77.403 200l2.247 4.613z" fill="#FFF"/><path d="M202.527 210.89l-2.506.038.027-5.48s2.133.16 2.653-.064c.436-.112 3.326-1.654 4.198-2.54.737-.655.99-1.324 1.275-2.19.227-.876 1.056-.688 1.42-.48.474.27.532.878.482 1.374-.062.378-.237.964-.523 1.494-.22.41-.585.76-.672.903-.11.177-.558.52-.384.576.95.21 1.39.27 2.74.624.51.277.635.356.78.885.105.543-.194 1.178-.653 1.585-.087.048-.48.536-.48.536s-1.017 2.834-1.55 3.434c-.337.3-.57.37-.96.416-.244 0-1.29-.048-2.478-.192-1.43-.22-2.365-.89-3.368-.92z" fill="#666"/><path d="M227.02 249.998c-3.865 0-7 2.702-7 6.036 0 1.738.86 3.3 2.223 4.402-.257.703-.692 1.622-1.43 2.562 1.4 0 3.2-.195 4.587-1.098.52.108 1.062.17 1.62.17 3.867 0 7-2.703 7-6.036s-3.133-6.036-7-6.036z" fill="#FFF"/><path d="M-76.78 329.08l-3.828.065.04-9.134s3.26.267 4.053-.105c.667-.187 5.082-2.757 6.415-4.235 1.126-1.09 1.51-2.204 1.947-3.65.347-1.457 1.615-1.144 2.17-.798.725.452.813 1.463.738 2.29-.096.63-.364 1.607-.8 2.49-.336.68-.894 1.266-1.027 1.506-.17.294-.853.864-.587.96 1.453.35 2.124.446 4.19 1.037.777.462.97.593 1.19 1.475.16.907-.296 1.965-.998 2.644-.133.08-.734.893-.734.893s-1.554 4.72-2.367 5.723c-.515.496-.87.614-1.466.692-.373 0-1.974-.08-3.787-.32-2.185-.367-3.614-1.484-5.146-1.532z" stroke-width="2" fill="none" transform="matrix(.68297 0 0 .6342 55.732 3.47)" stroke="#FFF"/><path stroke-linejoin="round" d="M740.47 421.25l-7.412 6.93 1.507 10.036-8.882-4.908-9.078 4.535 1.923-9.964-7.12-7.234 10.07-1.25 4.68-9.005 4.302 9.193z" transform="matrix(.4599 -.00706 .00707 .45955 -279.5 17.173)" stroke-width="2.768" fill="none" stroke="#FFF"/><path d="M162.453 209.776c-.733 0-1.392.313-1.86.814l-5.467-2.723c.02-.127.032-.257.032-.39 0-.13-.013-.257-.03-.38l5.46-2.694c.467.505 1.13.82 1.865.82 1.418 0 2.568-1.168 2.568-2.61 0-1.444-1.15-2.613-2.567-2.613s-2.57 1.17-2.57 2.612c0 .13.014.256.03.38l-5.457 2.693c-.468-.504-1.13-.82-1.866-.82-1.42 0-2.57 1.17-2.57 2.612 0 1.443 1.15 2.612 2.57 2.612.732 0 1.39-.315 1.86-.815l5.466 2.723c-.02.127-.032.257-.032.39 0 1.443 1.15 2.612 2.568 2.612s2.57-1.17 2.57-2.612c0-1.443-1.15-2.612-2.57-2.612z" fill="#777"/></svg>